<?xml version="1.0" encoding="UTF-8" standalone="no"?>
<!DOCTYPE svg PUBLIC "-//W3C//DTD SVG 1.1//EN" "http://www.w3.org/Graphics/SVG/1.1/DTD/svg11.dtd">
<svg xmlns="http://www.w3.org/2000/svg" version="1.1" viewBox="0 0 1024 1024">
<g stroke-width="2.00" fill="none" stroke-linecap="butt">
<path stroke="#afb0b0" vector-effect="non-scaling-stroke" d="
  M 6.44 1024.00
  L 6.71 1013.75"
/>
<path stroke="#c7c8c9" vector-effect="non-scaling-stroke" d="
  M 6.71 1013.75
  L 6.71 1003.50"
/>
<path stroke="#d1d2d3" vector-effect="non-scaling-stroke" d="
  M 6.71 1003.50
  L 6.46 994.50"
/>
<path stroke="#e3e4e7" vector-effect="non-scaling-stroke" d="
  M 6.46 994.50
  Q 6.66 992.02 5.42 988.59
  A 4.12 4.11 44.3 0 1 5.38 985.86
  Q 6.41 982.77 3.22 983.83
  A 1.65 1.28 39.0 0 1 2.29 983.81
  Q 1.13 983.43 1.00 984.50
  Q 0.57 988.11 0.00 991.69"
/>
<path stroke="#7ed1d4" vector-effect="non-scaling-stroke" d="
  M 510.44 310.31
  Q 515.26 312.68 521.29 311.16
  Q 526.19 309.92 527.25 305.50
  Q 528.14 301.79 528.18 295.25
  Q 528.56 236.61 528.03 177.98
  Q 527.99 173.14 527.31 171.09
  Q 526.10 167.40 522.99 165.34
  Q 518.86 162.61 514.13 163.61
  Q 509.88 164.50 507.87 168.67
  Q 506.99 170.51 506.82 173.49
  Q 506.68 175.99 506.70 178.50
  Q 507.06 221.38 506.98 264.25
  Q 506.95 284.07 507.22 303.89
  Q 507.26 306.27 507.81 307.51
  Q 508.68 309.45 510.44 310.31"
/>
<path stroke="#7fcfd1" vector-effect="non-scaling-stroke" d="
  M 351.00 272.71
  Q 347.67 276.65 349.39 280.45
  Q 349.57 280.84 353.57 286.14
  Q 378.74 319.51 399.06 347.94
  Q 400.89 350.49 402.95 351.46"
/>
<path stroke="#87c1bd" vector-effect="non-scaling-stroke" d="
  M 402.95 351.46
  Q 411.79 353.93 416.68 346.45
  Q 419.50 342.15 417.00 338.75
  Q 393.22 306.42 369.44 274.09
  Q 366.95 270.71 363.67 268.97
  Q 362.02 268.10 360.18 268.42
  Q 354.77 269.38 351.00 272.71"
/>
<path stroke="#0a9290" vector-effect="non-scaling-stroke" d="
  M 402.95 351.46
  Q 413.45 351.93 416.92 342.72
  Q 417.55 341.03 416.26 339.76
  Q 413.66 337.22 411.57 334.29
  Q 409.01 330.72 408.96 330.66
  Q 397.99 316.20 387.23 301.59
  Q 385.75 299.58 382.91 296.23
  Q 379.79 292.55 378.94 290.56
  Q 377.52 287.28 374.56 283.44
  Q 368.48 275.54 364.81 271.21
  Q 362.24 268.17 356.77 271.04
  Q 355.75 271.57 352.78 272.28
  L 351.00 272.71"
/>
<path stroke="#7fced2" vector-effect="non-scaling-stroke" d="
  M 626.19 351.31
  Q 631.87 355.28 636.99 352.85
  Q 639.71 351.56 643.94 346.00
  Q 663.91 319.75 683.41 293.14
  Q 683.43 293.12 685.77 290.02
  Q 688.91 285.89 691.62 280.81
  A 2.97 2.97 46.3 0 0 691.68 278.16
  Q 688.54 271.46 681.52 269.27
  Q 679.12 268.52 677.42 268.91
  Q 675.27 269.40 673.78 271.29
  Q 667.85 278.78 662.34 286.58
  Q 654.32 297.92 651.19 302.06
  Q 637.93 319.61 624.50 337.04
  Q 622.07 340.20 621.81 342.66
  Q 621.26 347.87 626.19 351.31"
/>
<path stroke="#7fcfd1" vector-effect="non-scaling-stroke" d="
  M 307.64 370.12
  Q 324.97 381.34 342.45 392.33
  Q 351.82 398.22 352.61 398.50
  Q 359.62 400.97 365.26 393.30
  Q 367.73 389.95 368.13 386.30
  Q 368.35 384.36 366.70 383.32
  Q 342.04 367.76 317.56 351.94
  Q 315.34 350.50 310.94 346.09
  Q 308.95 344.10 307.46 343.79
  Q 305.21 343.32 303.05 344.80
  Q 297.86 348.37 297.75 354.75
  Q 297.67 359.83 300.57 364.04
  Q 302.45 366.76 307.64 370.12"
/>
<path stroke="#7fb5b6" vector-effect="non-scaling-stroke" d="
  M 736.25 349.79
  Q 728.56 352.48 721.75 356.96"
/>
<path stroke="#7fccd1" vector-effect="non-scaling-stroke" d="
  M 721.75 356.96
  L 681.96 382.50"
/>
<path stroke="#7fb5b6" vector-effect="non-scaling-stroke" d="
  M 681.96 382.50
  L 676.39 385.95
  A 0.90 0.75 73.7 0 0 676.04 386.75
  Q 676.72 393.77 681.43 399.21"
/>
<path stroke="#7fccd1" vector-effect="non-scaling-stroke" d="
  M 681.43 399.21
  Q 684.95 404.13 691.00 400.50
  Q 713.34 387.09 735.43 373.27
  Q 735.52 373.22 737.71 371.91
  Q 742.71 368.94 744.94 364.94
  Q 748.72 358.12 743.37 351.86
  Q 740.53 348.54 736.25 349.79"
/>
<path stroke="#028389" vector-effect="non-scaling-stroke" d="
  M 681.43 399.21
  Q 678.72 393.90 677.00 388.24
  A 1.89 1.89 -20.5 0 1 678.04 385.96
  Q 680.44 384.91 681.96 382.50"
/>
<path stroke="#028389" vector-effect="non-scaling-stroke" d="
  M 721.75 356.96
  Q 729.30 353.99 736.25 349.79"
/>
<path stroke="#7fcfd4" vector-effect="non-scaling-stroke" d="
  M 491.46 364.95
  Q 456.25 370.75 429.81 392.06
  Q 390.78 423.53 380.86 472.83
  Q 378.66 483.75 377.91 492.60
  Q 376.71 506.72 378.94 521.56
  Q 383.70 553.26 400.83 579.18
  Q 409.35 592.06 422.81 606.19
  Q 435.03 619.01 440.50 635.50
  Q 443.58 644.79 447.78 653.04
  Q 448.92 655.28 453.93 662.95
  Q 458.67 670.20 461.84 678.48
  A 1.25 1.25 -11.5 0 0 463.05 679.28
  Q 472.72 679.01 481.19 678.81
  Q 483.26 678.76 481.84 676.27"
/>
<path stroke="#7fb5b6" vector-effect="non-scaling-stroke" d="
  M 481.84 676.27
  Q 482.49 662.67 482.00 641.50
  Q 481.66 626.69 477.07 614.29"
/>
<path stroke="#7fcfd4" vector-effect="non-scaling-stroke" d="
  M 477.07 614.29
  Q 475.25 605.26 470.22 597.71"
/>
<path stroke="#94c0be" vector-effect="non-scaling-stroke" d="
  M 470.22 597.71
  Q 468.01 592.16 464.34 587.67
  Q 453.82 574.81 444.47 561.03"
/>
<path stroke="#7fcfd4" vector-effect="non-scaling-stroke" d="
  M 444.47 561.03
  Q 436.84 548.11 433.50 532.00
  Q 431.30 521.38 431.51 512.50"
/>
<path stroke="#7fb5b6" vector-effect="non-scaling-stroke" d="
  M 431.51 512.50
  Q 432.45 499.31 437.07 486.93"
/>
<path stroke="#7fcfd4" vector-effect="non-scaling-stroke" d="
  M 437.07 486.93
  Q 445.64 469.00 462.19 456.44
  Q 481.70 441.63 505.75 441.32
  Q 520.90 441.12 537.06 444.44
  Q 561.58 449.46 580.55 464.69
  Q 588.68 471.22 595.81 481.69
  Q 603.55 493.04 605.95 505.57
  Q 607.67 514.61 606.92 525.49
  Q 605.62 544.12 595.69 560.69
  Q 591.07 568.39 586.15 574.97
  Q 579.71 583.58 579.20 584.31
  Q 575.88 589.11 572.79 594.05
  Q 561.90 611.48 559.93 631.51
  Q 559.33 637.63 559.26 651.50
  Q 559.19 664.42 560.38 677.69
  A 1.13 1.10 -2.0 0 0 561.48 678.69
  L 572.80 678.92
  A 1.46 1.41 8.7 0 0 574.21 677.92
  Q 575.48 673.87 577.24 670.61
  Q 578.44 668.36 581.62 664.60
  Q 585.35 660.18 586.19 658.69
  Q 591.77 648.72 596.00 636.25
  Q 601.73 619.34 614.91 606.41
  Q 621.79 599.66 628.30 592.54
  Q 632.56 587.88 635.68 582.44"
/>
<path stroke="#7fb5b6" vector-effect="non-scaling-stroke" d="
  M 635.68 582.44
  Q 654.44 556.43 658.75 525.75
  Q 660.51 513.19 659.82 497.49"
/>
<path stroke="#7fcfd4" vector-effect="non-scaling-stroke" d="
  M 659.82 497.49
  Q 659.52 479.87 654.31 463.06"
/>
<path stroke="#87c1bd" vector-effect="non-scaling-stroke" d="
  M 654.31 463.06
  Q 648.98 441.86 635.75 424.46"
/>
<path stroke="#7fcfd4" vector-effect="non-scaling-stroke" d="
  M 635.75 424.46
  Q 610.49 389.06 570.00 373.04"
/>
<path stroke="#7fb5b6" vector-effect="non-scaling-stroke" d="
  M 570.00 373.04
  Q 558.31 368.12 543.00 365.50
  Q 516.32 360.93 491.46 364.95"
/>
<path stroke="#02868c" vector-effect="non-scaling-stroke" d="
  M 570.00 373.04
  L 569.66 373.49
  A 0.68 0.52 -57.9 0 1 568.97 373.75
  Q 553.75 367.84 537.65 365.95
  Q 529.21 364.97 520.87 364.46
  Q 512.43 363.94 503.97 364.55
  Q 503.89 364.55 499.07 365.24
  Q 495.30 365.77 491.46 364.95"
/>
<path stroke="#099293" vector-effect="non-scaling-stroke" d="
  M 635.75 424.46
  Q 635.33 424.80 635.28 425.25
  Q 635.25 425.59 635.57 426.04
  Q 647.73 443.11 654.31 463.06"
/>
<path stroke="#02868c" vector-effect="non-scaling-stroke" d="
  M 659.82 497.49
  Q 659.51 512.17 657.75 526.75
  Q 655.56 544.88 647.50 561.25
  Q 643.30 569.77 635.68 582.44"
/>
<path stroke="#02868c" vector-effect="non-scaling-stroke" d="
  M 437.07 486.93
  Q 431.08 499.00 431.51 512.50"
/>
<path stroke="#179194" vector-effect="non-scaling-stroke" d="
  M 444.47 561.03
  Q 447.81 568.83 452.96 575.50
  Q 458.14 582.22 458.19 582.29
  Q 463.97 590.18 470.22 597.71"
/>
<path stroke="#02868c" vector-effect="non-scaling-stroke" d="
  M 477.07 614.29
  Q 480.74 630.10 481.00 643.25
  Q 481.53 670.21 481.84 676.27"
/>
<path stroke="#7e939d" vector-effect="non-scaling-stroke" d="
  M 538.82 631.99
  Q 539.62 610.30 550.20 591.44
  Q 552.78 586.84 555.38 582.21"
/>
<path stroke="#7fced4" vector-effect="non-scaling-stroke" d="
  M 555.38 582.21
  Q 565.43 568.38 574.93 554.18
  Q 580.45 545.93 583.54 536.50"
/>
<path stroke="#7fb5b6" vector-effect="non-scaling-stroke" d="
  M 583.54 536.50
  Q 586.64 527.68 586.83 518.23"
/>
<path stroke="#7fced4" vector-effect="non-scaling-stroke" d="
  M 586.83 518.23
  Q 586.96 505.34 580.70 494.89
  Q 576.79 488.36 569.68 482.60
  Q 563.20 477.35 555.56 473.69
  Q 534.35 463.51 511.23 463.36
  Q 500.01 463.28 491.44 465.66
  Q 474.96 470.23 464.06 483.31
  Q 453.22 496.33 452.50 513.00
  Q 451.65 532.55 461.85 549.61
  Q 468.93 561.44 480.31 575.94
  Q 499.58 600.48 502.29 632.75
  Q 503.20 643.68 503.25 651.00
  Q 503.34 664.76 504.00 678.51
  A 0.72 0.71 -1.2 0 0 504.72 679.19
  L 538.28 678.75
  A 0.73 0.72 -0.4 0 0 539.00 678.03
  L 538.82 631.99"
/>
<path stroke="#02858c" vector-effect="non-scaling-stroke" d="
  M 586.83 518.23
  Q 585.69 520.56 585.48 523.04
  Q 585.15 526.98 584.95 527.91
  Q 584.04 532.17 583.54 536.50"
/>
<path stroke="#016372" vector-effect="non-scaling-stroke" d="
  M 555.38 582.21
  Q 545.78 595.74 541.06 612.31
  Q 538.21 622.31 538.82 631.99"
/>
<path stroke="#7fc8ce" vector-effect="non-scaling-stroke" d="
  M 280.69 509.30
  Q 306.10 509.45 331.52 510.00
  Q 334.78 510.07 336.91 507.60
  Q 340.59 503.32 340.75 496.50
  Q 340.86 491.69 335.75 489.50
  Q 334.15 488.81 329.21 488.90
  Q 323.39 488.99 323.29 488.99
  Q 282.89 488.91 242.48 488.53
  Q 239.10 488.49 237.34 489.73
  Q 233.54 492.39 234.25 498.00
  Q 235.02 504.10 239.33 507.62
  Q 240.69 508.73 242.61 508.96
  Q 244.42 509.19 246.25 509.19
  Q 263.47 509.20 280.69 509.30"
/>
<path stroke="#7fcfd2" vector-effect="non-scaling-stroke" d="
  M 710.29 511.18
  Q 711.81 512.28 715.00 512.25
  Q 762.24 511.73 809.48 511.28
  Q 813.17 511.24 815.23 509.97
  Q 819.80 507.14 820.38 501.07
  Q 821.26 491.92 812.24 490.57
  Q 810.21 490.27 803.75 490.50
  Q 791.31 490.95 762.49 491.18
  Q 754.16 491.25 742.51 491.54
  Q 732.01 491.81 721.50 491.91
  Q 716.54 491.95 711.77 493.31
  Q 707.41 494.55 705.59 498.04
  Q 703.92 501.27 705.42 505.03
  Q 706.88 508.69 710.29 511.18"
/>
<path stroke="#7fb5b6" vector-effect="non-scaling-stroke" d="
  M 325.50 624.54
  Q 328.36 629.94 334.33 632.15"
/>
<path stroke="#7fcfd2" vector-effect="non-scaling-stroke" d="
  M 334.33 632.15
  Q 340.29 635.06 346.31 630.81
  Q 355.69 624.19 365.17 617.73
  Q 366.85 616.58 369.44 614.19
  Q 372.17 611.66 372.83 608.44
  Q 373.44 605.52 372.67 602.06
  Q 371.94 598.80 369.63 596.34
  Q 367.94 594.55 365.78 594.04
  Q 363.20 593.43 361.06 594.56
  Q 352.43 599.13 338.25 608.56
  Q 338.20 608.59 334.05 611.19
  Q 329.42 614.10 326.25 617.75
  Q 323.66 620.74 325.50 624.54"
/>
<path stroke="#02868a" vector-effect="non-scaling-stroke" d="
  M 334.33 632.15
  L 325.50 624.54"
/>
<path stroke="#7fcfd1" vector-effect="non-scaling-stroke" d="
  M 673.62 599.53
  Q 671.48 603.88 673.16 607.48
  Q 674.25 609.81 677.97 611.78
  Q 683.85 614.88 690.03 617.31"
/>
<path stroke="#87c1bd" vector-effect="non-scaling-stroke" d="
  M 690.03 617.31
  Q 697.16 621.57 704.71 624.90
  Q 705.29 625.15 710.07 627.45
  Q 713.49 629.10 715.75 629.25
  Q 722.72 629.73 724.00 623.25
  Q 725.38 616.25 718.90 613.15
  Q 710.38 609.07 701.65 605.47
  Q 695.08 602.76 691.56 599.94
  Q 687.20 596.44 682.60 595.24
  Q 679.49 594.43 677.39 595.12
  Q 674.46 596.09 673.62 599.53"
/>
<path stroke="#0a9290" vector-effect="non-scaling-stroke" d="
  M 690.03 617.31
  Q 702.90 622.43 707.44 625.06
  Q 711.96 627.68 714.75 628.00
  Q 722.83 628.91 723.07 621.70
  Q 723.14 619.49 722.23 617.95
  Q 721.22 616.23 719.32 615.17
  Q 713.39 611.87 706.98 609.65
  Q 706.92 609.63 702.99 608.49
  Q 697.91 607.01 693.68 603.81
  Q 692.82 603.16 690.92 602.35
  Q 689.38 601.70 688.30 600.39
  Q 687.97 599.99 687.54 599.82
  Q 685.86 599.17 685.31 598.69
  Q 682.50 596.24 678.75 596.49
  Q 675.46 596.71 673.62 599.53"
/>
<path stroke="#7fb5b6" vector-effect="non-scaling-stroke" d="
  M 580.39 708.45
  Q 575.72 700.99 566.78 701.25"
/>
<path stroke="#7fced2" vector-effect="non-scaling-stroke" d="
  M 566.78 701.25
  Q 519.78 701.25 472.75 701.27
  Q 462.23 701.27 457.91 710.58
  Q 454.82 717.25 458.43 723.54
  Q 461.49 728.87 465.06 731.44
  Q 468.87 734.17 474.00 733.80
  Q 478.43 733.48 478.53 733.48
  Q 517.68 733.10 556.84 733.24
  Q 556.93 733.24 563.65 733.49
  Q 567.08 733.62 570.50 733.29
  Q 573.98 732.97 575.94 731.44
  Q 581.66 726.96 583.50 719.00
  Q 584.85 713.15 580.39 708.45"
/>
<path stroke="#02858a" vector-effect="non-scaling-stroke" d="
  M 566.78 701.25
  Q 574.58 703.03 580.39 708.45"
/>
<path stroke="#7fccd1" vector-effect="non-scaling-stroke" d="
  M 463.53 775.43
  Q 467.15 777.90 473.19 777.81
  Q 499.36 777.44 566.25 778.00
  Q 576.29 778.08 580.00 769.42
  Q 581.36 766.25 581.13 763.42
  Q 580.83 759.77 578.20 757.65
  Q 575.84 755.75 570.33 755.26
  Q 565.95 754.87 561.55 755.00
  Q 553.01 755.25 552.95 755.25
  Q 510.85 755.25 468.75 755.25
  Q 460.39 755.25 458.07 761.37
  Q 456.64 765.16 458.27 769.10
  Q 459.85 772.92 463.53 775.43"
/>
<path stroke="#7fcfd1" vector-effect="non-scaling-stroke" d="
  M 513.87 822.76
  Q 519.95 825.09 526.78 823.63
  Q 531.99 822.52 534.69 819.19
  Q 541.01 811.36 544.40 801.56
  A 0.59 0.59 13.9 0 0 543.93 800.78
  Q 537.05 799.64 530.25 799.69
  Q 513.35 799.79 496.44 799.69
  A 0.33 0.32 -12.2 0 0 496.14 800.15
  Q 497.61 803.57 501.69 810.56
  Q 504.15 814.78 506.79 817.76
  Q 509.86 821.23 513.87 822.76"
/>
<path stroke="#f2f1f5" vector-effect="non-scaling-stroke" d="
  M 21.52 994.21
  L 20.56 994.59
  A 0.50 0.43 74.0 0 1 19.96 994.19
  Q 19.64 992.52 19.52 990.82
  Q 19.48 990.10 19.15 990.35
  Q 19.01 990.46 18.96 990.69
  Q 17.45 998.88 17.06 1007.20
  A 1.98 1.98 -84.7 0 0 18.76 1009.25
  Q 24.80 1010.11 23.75 1003.75
  Q 22.96 998.94 23.75 990.75
  Q 23.79 990.33 23.47 990.14
  A 0.48 0.44 -68.1 0 0 22.81 990.46
  L 22.00 993.43
  A 1.17 0.51 -81.7 0 1 21.52 994.21"
/>
<path stroke="#b8b8bc" vector-effect="non-scaling-stroke" d="
  M 6.46 994.50
  Q 5.90 993.56 4.99 993.64
  Q 4.39 993.70 4.01 993.65
  L 0.00 993.19"
/>
<path stroke="#9c9c9e" vector-effect="non-scaling-stroke" d="
  M 6.71 1003.50
  Q 3.25 1004.00 0.00 1002.94"
/>
<path stroke="#7a7a7b" vector-effect="non-scaling-stroke" d="
  M 6.71 1013.75
  L 0.00 1013.94"
/>
</g>
<path fill="#fcfefe" d="
  M 0.00 0.00
  L 1024.00 0.00
  L 1024.00 1024.00
  L 6.44 1024.00
  L 6.71 1013.75
  L 6.71 1003.50
  L 6.46 994.50
  Q 6.66 992.02 5.42 988.59
  A 4.12 4.11 44.3 0 1 5.38 985.86
  Q 6.41 982.77 3.22 983.83
  A 1.65 1.28 39.0 0 1 2.29 983.81
  Q 1.13 983.43 1.00 984.50
  Q 0.57 988.11 0.00 991.69
  L 0.00 0.00
  Z
  M 510.44 310.31
  Q 515.26 312.68 521.29 311.16
  Q 526.19 309.92 527.25 305.50
  Q 528.14 301.79 528.18 295.25
  Q 528.56 236.61 528.03 177.98
  Q 527.99 173.14 527.31 171.09
  Q 526.10 167.40 522.99 165.34
  Q 518.86 162.61 514.13 163.61
  Q 509.88 164.50 507.87 168.67
  Q 506.99 170.51 506.82 173.49
  Q 506.68 175.99 506.70 178.50
  Q 507.06 221.38 506.98 264.25
  Q 506.95 284.07 507.22 303.89
  Q 507.26 306.27 507.81 307.51
  Q 508.68 309.45 510.44 310.31
  Z
  M 351.00 272.71
  Q 347.67 276.65 349.39 280.45
  Q 349.57 280.84 353.57 286.14
  Q 378.74 319.51 399.06 347.94
  Q 400.89 350.49 402.95 351.46
  Q 411.79 353.93 416.68 346.45
  Q 419.50 342.15 417.00 338.75
  Q 393.22 306.42 369.44 274.09
  Q 366.95 270.71 363.67 268.97
  Q 362.02 268.10 360.18 268.42
  Q 354.77 269.38 351.00 272.71
  Z
  M 626.19 351.31
  Q 631.87 355.28 636.99 352.85
  Q 639.71 351.56 643.94 346.00
  Q 663.91 319.75 683.41 293.14
  Q 683.43 293.12 685.77 290.02
  Q 688.91 285.89 691.62 280.81
  A 2.97 2.97 46.3 0 0 691.68 278.16
  Q 688.54 271.46 681.52 269.27
  Q 679.12 268.52 677.42 268.91
  Q 675.27 269.40 673.78 271.29
  Q 667.85 278.78 662.34 286.58
  Q 654.32 297.92 651.19 302.06
  Q 637.93 319.61 624.50 337.04
  Q 622.07 340.20 621.81 342.66
  Q 621.26 347.87 626.19 351.31
  Z
  M 307.64 370.12
  Q 324.97 381.34 342.45 392.33
  Q 351.82 398.22 352.61 398.50
  Q 359.62 400.97 365.26 393.30
  Q 367.73 389.95 368.13 386.30
  Q 368.35 384.36 366.70 383.32
  Q 342.04 367.76 317.56 351.94
  Q 315.34 350.50 310.94 346.09
  Q 308.95 344.10 307.46 343.79
  Q 305.21 343.32 303.05 344.80
  Q 297.86 348.37 297.75 354.75
  Q 297.67 359.83 300.57 364.04
  Q 302.45 366.76 307.64 370.12
  Z
  M 736.25 349.79
  Q 728.56 352.48 721.75 356.96
  L 681.96 382.50
  L 676.39 385.95
  A 0.90 0.75 73.7 0 0 676.04 386.75
  Q 676.72 393.77 681.43 399.21
  Q 684.95 404.13 691.00 400.50
  Q 713.34 387.09 735.43 373.27
  Q 735.52 373.22 737.71 371.91
  Q 742.71 368.94 744.94 364.94
  Q 748.72 358.12 743.37 351.86
  Q 740.53 348.54 736.25 349.79
  Z
  M 491.46 364.95
  Q 456.25 370.75 429.81 392.06
  Q 390.78 423.53 380.86 472.83
  Q 378.66 483.75 377.91 492.60
  Q 376.71 506.72 378.94 521.56
  Q 383.70 553.26 400.83 579.18
  Q 409.35 592.06 422.81 606.19
  Q 435.03 619.01 440.50 635.50
  Q 443.58 644.79 447.78 653.04
  Q 448.92 655.28 453.93 662.95
  Q 458.67 670.20 461.84 678.48
  A 1.25 1.25 -11.5 0 0 463.05 679.28
  Q 472.72 679.01 481.19 678.81
  Q 483.26 678.76 481.84 676.27
  Q 482.49 662.67 482.00 641.50
  Q 481.66 626.69 477.07 614.29
  Q 475.25 605.26 470.22 597.71
  Q 468.01 592.16 464.34 587.67
  Q 453.82 574.81 444.47 561.03
  Q 436.84 548.11 433.50 532.00
  Q 431.30 521.38 431.51 512.50
  Q 432.45 499.31 437.07 486.93
  Q 445.64 469.00 462.19 456.44
  Q 481.70 441.63 505.75 441.32
  Q 520.90 441.12 537.06 444.44
  Q 561.58 449.46 580.55 464.69
  Q 588.68 471.22 595.81 481.69
  Q 603.55 493.04 605.95 505.57
  Q 607.67 514.61 606.92 525.49
  Q 605.62 544.12 595.69 560.69
  Q 591.07 568.39 586.15 574.97
  Q 579.71 583.58 579.20 584.31
  Q 575.88 589.11 572.79 594.05
  Q 561.90 611.48 559.93 631.51
  Q 559.33 637.63 559.26 651.50
  Q 559.19 664.42 560.38 677.69
  A 1.13 1.10 -2.0 0 0 561.48 678.69
  L 572.80 678.92
  A 1.46 1.41 8.7 0 0 574.21 677.92
  Q 575.48 673.87 577.24 670.61
  Q 578.44 668.36 581.62 664.60
  Q 585.35 660.18 586.19 658.69
  Q 591.77 648.72 596.00 636.25
  Q 601.73 619.34 614.91 606.41
  Q 621.79 599.66 628.30 592.54
  Q 632.56 587.88 635.68 582.44
  Q 654.44 556.43 658.75 525.75
  Q 660.51 513.19 659.82 497.49
  Q 659.52 479.87 654.31 463.06
  Q 648.98 441.86 635.75 424.46
  Q 610.49 389.06 570.00 373.04
  Q 558.31 368.12 543.00 365.50
  Q 516.32 360.93 491.46 364.95
  Z
  M 538.82 631.99
  Q 539.62 610.30 550.20 591.44
  Q 552.78 586.84 555.38 582.21
  Q 565.43 568.38 574.93 554.18
  Q 580.45 545.93 583.54 536.50
  Q 586.64 527.68 586.83 518.23
  Q 586.96 505.34 580.70 494.89
  Q 576.79 488.36 569.68 482.60
  Q 563.20 477.35 555.56 473.69
  Q 534.35 463.51 511.23 463.36
  Q 500.01 463.28 491.44 465.66
  Q 474.96 470.23 464.06 483.31
  Q 453.22 496.33 452.50 513.00
  Q 451.65 532.55 461.85 549.61
  Q 468.93 561.44 480.31 575.94
  Q 499.58 600.48 502.29 632.75
  Q 503.20 643.68 503.25 651.00
  Q 503.34 664.76 504.00 678.51
  A 0.72 0.71 -1.2 0 0 504.72 679.19
  L 538.28 678.75
  A 0.73 0.72 -0.4 0 0 539.00 678.03
  L 538.82 631.99
  Z
  M 280.69 509.30
  Q 306.10 509.45 331.52 510.00
  Q 334.78 510.07 336.91 507.60
  Q 340.59 503.32 340.75 496.50
  Q 340.86 491.69 335.75 489.50
  Q 334.15 488.81 329.21 488.90
  Q 323.39 488.99 323.29 488.99
  Q 282.89 488.91 242.48 488.53
  Q 239.10 488.49 237.34 489.73
  Q 233.54 492.39 234.25 498.00
  Q 235.02 504.10 239.33 507.62
  Q 240.69 508.73 242.61 508.96
  Q 244.42 509.19 246.25 509.19
  Q 263.47 509.20 280.69 509.30
  Z
  M 710.29 511.18
  Q 711.81 512.28 715.00 512.25
  Q 762.24 511.73 809.48 511.28
  Q 813.17 511.24 815.23 509.97
  Q 819.80 507.14 820.38 501.07
  Q 821.26 491.92 812.24 490.57
  Q 810.21 490.27 803.75 490.50
  Q 791.31 490.95 762.49 491.18
  Q 754.16 491.25 742.51 491.54
  Q 732.01 491.81 721.50 491.91
  Q 716.54 491.95 711.77 493.31
  Q 707.41 494.55 705.59 498.04
  Q 703.92 501.27 705.42 505.03
  Q 706.88 508.69 710.29 511.18
  Z
  M 325.50 624.54
  Q 328.36 629.94 334.33 632.15
  Q 340.29 635.06 346.31 630.81
  Q 355.69 624.19 365.17 617.73
  Q 366.85 616.58 369.44 614.19
  Q 372.17 611.66 372.83 608.44
  Q 373.44 605.52 372.67 602.06
  Q 371.94 598.80 369.63 596.34
  Q 367.94 594.55 365.78 594.04
  Q 363.20 593.43 361.06 594.56
  Q 352.43 599.13 338.25 608.56
  Q 338.20 608.59 334.05 611.19
  Q 329.42 614.10 326.25 617.75
  Q 323.66 620.74 325.50 624.54
  Z
  M 673.62 599.53
  Q 671.48 603.88 673.16 607.48
  Q 674.25 609.81 677.97 611.78
  Q 683.85 614.88 690.03 617.31
  Q 697.16 621.57 704.71 624.90
  Q 705.29 625.15 710.07 627.45
  Q 713.49 629.10 715.75 629.25
  Q 722.72 629.73 724.00 623.25
  Q 725.38 616.25 718.90 613.15
  Q 710.38 609.07 701.65 605.47
  Q 695.08 602.76 691.56 599.94
  Q 687.20 596.44 682.60 595.24
  Q 679.49 594.43 677.39 595.12
  Q 674.46 596.09 673.62 599.53
  Z
  M 580.39 708.45
  Q 575.72 700.99 566.78 701.25
  Q 519.78 701.25 472.75 701.27
  Q 462.23 701.27 457.91 710.58
  Q 454.82 717.25 458.43 723.54
  Q 461.49 728.87 465.06 731.44
  Q 468.87 734.17 474.00 733.80
  Q 478.43 733.48 478.53 733.48
  Q 517.68 733.10 556.84 733.24
  Q 556.93 733.24 563.65 733.49
  Q 567.08 733.62 570.50 733.29
  Q 573.98 732.97 575.94 731.44
  Q 581.66 726.96 583.50 719.00
  Q 584.85 713.15 580.39 708.45
  Z
  M 463.53 775.43
  Q 467.15 777.90 473.19 777.81
  Q 499.36 777.44 566.25 778.00
  Q 576.29 778.08 580.00 769.42
  Q 581.36 766.25 581.13 763.42
  Q 580.83 759.77 578.20 757.65
  Q 575.84 755.75 570.33 755.26
  Q 565.95 754.87 561.55 755.00
  Q 553.01 755.25 552.95 755.25
  Q 510.85 755.25 468.75 755.25
  Q 460.39 755.25 458.07 761.37
  Q 456.64 765.16 458.27 769.10
  Q 459.85 772.92 463.53 775.43
  Z
  M 513.87 822.76
  Q 519.95 825.09 526.78 823.63
  Q 531.99 822.52 534.69 819.19
  Q 541.01 811.36 544.40 801.56
  A 0.59 0.59 13.9 0 0 543.93 800.78
  Q 537.05 799.64 530.25 799.69
  Q 513.35 799.79 496.44 799.69
  A 0.33 0.32 -12.2 0 0 496.14 800.15
  Q 497.61 803.57 501.69 810.56
  Q 504.15 814.78 506.79 817.76
  Q 509.86 821.23 513.87 822.76
  Z
  M 21.52 994.21
  L 20.56 994.59
  A 0.50 0.43 74.0 0 1 19.96 994.19
  Q 19.64 992.52 19.52 990.82
  Q 19.48 990.10 19.15 990.35
  Q 19.01 990.46 18.96 990.69
  Q 17.45 998.88 17.06 1007.20
  A 1.98 1.98 -84.7 0 0 18.76 1009.25
  Q 24.80 1010.11 23.75 1003.75
  Q 22.96 998.94 23.75 990.75
  Q 23.79 990.33 23.47 990.14
  A 0.48 0.44 -68.1 0 0 22.81 990.46
  L 22.00 993.43
  A 1.17 0.51 -81.7 0 1 21.52 994.21
  Z"
/>
<path fill="#00a3aa" d="
  M 510.44 310.31
  Q 508.68 309.45 507.81 307.51
  Q 507.26 306.27 507.22 303.89
  Q 506.95 284.07 506.98 264.25
  Q 507.06 221.38 506.70 178.50
  Q 506.68 175.99 506.82 173.49
  Q 506.99 170.51 507.87 168.67
  Q 509.88 164.50 514.13 163.61
  Q 518.86 162.61 522.99 165.34
  Q 526.10 167.40 527.31 171.09
  Q 527.99 173.14 528.03 177.98
  Q 528.56 236.61 528.18 295.25
  Q 528.14 301.79 527.25 305.50
  Q 526.19 309.92 521.29 311.16
  Q 515.26 312.68 510.44 310.31
  Z"
/>
<path fill="#11837c" d="
  M 402.95 351.46
  Q 413.45 351.93 416.92 342.72
  Q 417.55 341.03 416.26 339.76
  Q 413.66 337.22 411.57 334.29
  Q 409.01 330.72 408.96 330.66
  Q 397.99 316.20 387.23 301.59
  Q 385.75 299.58 382.91 296.23
  Q 379.79 292.55 378.94 290.56
  Q 377.52 287.28 374.56 283.44
  Q 368.48 275.54 364.81 271.21
  Q 362.24 268.17 356.77 271.04
  Q 355.75 271.57 352.78 272.28
  L 351.00 272.71
  Q 354.77 269.38 360.18 268.42
  Q 362.02 268.10 363.67 268.97
  Q 366.95 270.71 369.44 274.09
  Q 393.22 306.42 417.00 338.75
  Q 419.50 342.15 416.68 346.45
  Q 411.79 353.93 402.95 351.46
  Z"
/>
<path fill="#019da5" d="
  M 626.19 351.31
  Q 621.26 347.87 621.81 342.66
  Q 622.07 340.20 624.50 337.04
  Q 637.93 319.61 651.19 302.06
  Q 654.32 297.92 662.34 286.58
  Q 667.85 278.78 673.78 271.29
  Q 675.27 269.40 677.42 268.91
  Q 679.12 268.52 681.52 269.27
  Q 688.54 271.46 691.68 278.16
  A 2.97 2.97 46.3 0 1 691.62 280.81
  Q 688.91 285.89 685.77 290.02
  Q 683.43 293.12 683.41 293.14
  Q 663.91 319.75 643.94 346.00
  Q 639.71 351.56 636.99 352.85
  Q 631.87 355.28 626.19 351.31
  Z"
/>
<path fill="#02a0a3" d="
  M 402.95 351.46
  Q 400.89 350.49 399.06 347.94
  Q 378.74 319.51 353.57 286.14
  Q 349.57 280.84 349.39 280.45
  Q 347.67 276.65 351.00 272.71
  L 352.78 272.28
  Q 355.75 271.57 356.77 271.04
  Q 362.24 268.17 364.81 271.21
  Q 368.48 275.54 374.56 283.44
  Q 377.52 287.28 378.94 290.56
  Q 379.79 292.55 382.91 296.23
  Q 385.75 299.58 387.23 301.59
  Q 397.99 316.20 408.96 330.66
  Q 409.01 330.72 411.57 334.29
  Q 413.66 337.22 416.26 339.76
  Q 417.55 341.03 416.92 342.72
  Q 413.45 351.93 402.95 351.46
  Z"
/>
<path fill="#02a0a3" d="
  M 300.57 364.04
  Q 297.67 359.83 297.75 354.75
  Q 297.86 348.37 303.05 344.80
  Q 305.21 343.32 307.46 343.79
  Q 308.95 344.10 310.94 346.09
  Q 315.34 350.50 317.56 351.94
  Q 342.04 367.76 366.70 383.32
  Q 368.35 384.36 368.13 386.30
  Q 367.73 389.95 365.26 393.30
  Q 359.62 400.97 352.61 398.50
  Q 351.82 398.22 342.45 392.33
  Q 324.97 381.34 307.64 370.12
  Q 302.45 366.76 300.57 364.04
  Z"
/>
<path fill="#0199a4" d="
  M 681.43 399.21
  Q 678.72 393.90 677.00 388.24
  A 1.89 1.89 -20.5 0 1 678.04 385.96
  Q 680.44 384.91 681.96 382.50
  L 721.75 356.96
  Q 729.30 353.99 736.25 349.79
  Q 740.53 348.54 743.37 351.86
  Q 748.72 358.12 744.94 364.94
  Q 742.71 368.94 737.71 371.91
  Q 735.52 373.22 735.43 373.27
  Q 713.34 387.09 691.00 400.50
  Q 684.95 404.13 681.43 399.21
  Z"
/>
<path fill="#026c6e" d="
  M 736.25 349.79
  Q 729.30 353.99 721.75 356.96
  Q 728.56 352.48 736.25 349.79
  Z"
/>
<path fill="#026c6e" d="
  M 570.00 373.04
  L 569.66 373.49
  A 0.68 0.52 -57.9 0 1 568.97 373.75
  Q 553.75 367.84 537.65 365.95
  Q 529.21 364.97 520.87 364.46
  Q 512.43 363.94 503.97 364.55
  Q 503.89 364.55 499.07 365.24
  Q 495.30 365.77 491.46 364.95
  Q 516.32 360.93 543.00 365.50
  Q 558.31 368.12 570.00 373.04
  Z"
/>
<path fill="#01a0aa" d="
  M 570.00 373.04
  Q 610.49 389.06 635.75 424.46
  Q 635.33 424.80 635.28 425.25
  Q 635.25 425.59 635.57 426.04
  Q 647.73 443.11 654.31 463.06
  Q 659.52 479.87 659.82 497.49
  Q 659.51 512.17 657.75 526.75
  Q 655.56 544.88 647.50 561.25
  Q 643.30 569.77 635.68 582.44
  Q 632.56 587.88 628.30 592.54
  Q 621.79 599.66 614.91 606.41
  Q 601.73 619.34 596.00 636.25
  Q 591.77 648.72 586.19 658.69
  Q 585.35 660.18 581.62 664.60
  Q 578.44 668.36 577.24 670.61
  Q 575.48 673.87 574.21 677.92
  A 1.46 1.41 8.7 0 1 572.80 678.92
  L 561.48 678.69
  A 1.13 1.10 -2.0 0 1 560.38 677.69
  Q 559.19 664.42 559.26 651.50
  Q 559.33 637.63 559.93 631.51
  Q 561.90 611.48 572.79 594.05
  Q 575.88 589.11 579.20 584.31
  Q 579.71 583.58 586.15 574.97
  Q 591.07 568.39 595.69 560.69
  Q 605.62 544.12 606.92 525.49
  Q 607.67 514.61 605.95 505.57
  Q 603.55 493.04 595.81 481.69
  Q 588.68 471.22 580.55 464.69
  Q 561.58 449.46 537.06 444.44
  Q 520.90 441.12 505.75 441.32
  Q 481.70 441.63 462.19 456.44
  Q 445.64 469.00 437.07 486.93
  Q 431.08 499.00 431.51 512.50
  Q 431.30 521.38 433.50 532.00
  Q 436.84 548.11 444.47 561.03
  Q 447.81 568.83 452.96 575.50
  Q 458.14 582.22 458.19 582.29
  Q 463.97 590.18 470.22 597.71
  Q 475.25 605.26 477.07 614.29
  Q 480.74 630.10 481.00 643.25
  Q 481.53 670.21 481.84 676.27
  Q 483.26 678.76 481.19 678.81
  Q 472.72 679.01 463.05 679.28
  A 1.25 1.25 -11.5 0 1 461.84 678.48
  Q 458.67 670.20 453.93 662.95
  Q 448.92 655.28 447.78 653.04
  Q 443.58 644.79 440.50 635.50
  Q 435.03 619.01 422.81 606.19
  Q 409.35 592.06 400.83 579.18
  Q 383.70 553.26 378.94 521.56
  Q 376.71 506.72 377.91 492.60
  Q 378.66 483.75 380.86 472.83
  Q 390.78 423.53 429.81 392.06
  Q 456.25 370.75 491.46 364.95
  Q 495.30 365.77 499.07 365.24
  Q 503.89 364.55 503.97 364.55
  Q 512.43 363.94 520.87 364.46
  Q 529.21 364.97 537.65 365.95
  Q 553.75 367.84 568.97 373.75
  A 0.68 0.52 -57.9 0 0 569.66 373.49
  L 570.00 373.04
  Z"
/>
<path fill="#026c6e" d="
  M 681.96 382.50
  Q 680.44 384.91 678.04 385.96
  A 1.89 1.89 -20.5 0 0 677.00 388.24
  Q 678.72 393.90 681.43 399.21
  Q 676.72 393.77 676.04 386.75
  A 0.90 0.75 73.7 0 1 676.39 385.95
  L 681.96 382.50
  Z"
/>
<path fill="#11837c" d="
  M 635.75 424.46
  Q 648.98 441.86 654.31 463.06
  Q 647.73 443.11 635.57 426.04
  Q 635.25 425.59 635.28 425.25
  Q 635.33 424.80 635.75 424.46
  Z"
/>
<path fill="#019ea9" d="
  M 586.83 518.23
  Q 585.69 520.56 585.48 523.04
  Q 585.15 526.98 584.95 527.91
  Q 584.04 532.17 583.54 536.50
  Q 580.45 545.93 574.93 554.18
  Q 565.43 568.38 555.38 582.21
  Q 545.78 595.74 541.06 612.31
  Q 538.21 622.31 538.82 631.99
  L 539.00 678.03
  A 0.73 0.72 -0.4 0 1 538.28 678.75
  L 504.72 679.19
  A 0.72 0.71 -1.2 0 1 504.00 678.51
  Q 503.34 664.76 503.25 651.00
  Q 503.20 643.68 502.29 632.75
  Q 499.58 600.48 480.31 575.94
  Q 468.93 561.44 461.85 549.61
  Q 451.65 532.55 452.50 513.00
  Q 453.22 496.33 464.06 483.31
  Q 474.96 470.23 491.44 465.66
  Q 500.01 463.28 511.23 463.36
  Q 534.35 463.51 555.56 473.69
  Q 563.20 477.35 569.68 482.60
  Q 576.79 488.36 580.70 494.89
  Q 586.96 505.34 586.83 518.23
  Z"
/>
<path fill="#026c6e" d="
  M 437.07 486.93
  Q 432.45 499.31 431.51 512.50
  Q 431.08 499.00 437.07 486.93
  Z"
/>
<path fill="#01929e" d="
  M 280.69 509.30
  Q 263.47 509.20 246.25 509.19
  Q 244.42 509.19 242.61 508.96
  Q 240.69 508.73 239.33 507.62
  Q 235.02 504.10 234.25 498.00
  Q 233.54 492.39 237.34 489.73
  Q 239.10 488.49 242.48 488.53
  Q 282.89 488.91 323.29 488.99
  Q 323.39 488.99 329.21 488.90
  Q 334.15 488.81 335.75 489.50
  Q 340.86 491.69 340.75 496.50
  Q 340.59 503.32 336.91 507.60
  Q 334.78 510.07 331.52 510.00
  Q 306.10 509.45 280.69 509.30
  Z"
/>
<path fill="#01a0a6" d="
  M 710.29 511.18
  Q 706.88 508.69 705.42 505.03
  Q 703.92 501.27 705.59 498.04
  Q 707.41 494.55 711.77 493.31
  Q 716.54 491.95 721.50 491.91
  Q 732.01 491.81 742.51 491.54
  Q 754.16 491.25 762.49 491.18
  Q 791.31 490.95 803.75 490.50
  Q 810.21 490.27 812.24 490.57
  Q 821.26 491.92 820.38 501.07
  Q 819.80 507.14 815.23 509.97
  Q 813.17 511.24 809.48 511.28
  Q 762.24 511.73 715.00 512.25
  Q 711.81 512.28 710.29 511.18
  Z"
/>
<path fill="#026c6e" d="
  M 659.82 497.49
  Q 660.51 513.19 658.75 525.75
  Q 654.44 556.43 635.68 582.44
  Q 643.30 569.77 647.50 561.25
  Q 655.56 544.88 657.75 526.75
  Q 659.51 512.17 659.82 497.49
  Z"
/>
<path fill="#026c6e" d="
  M 586.83 518.23
  Q 586.64 527.68 583.54 536.50
  Q 584.04 532.17 584.95 527.91
  Q 585.15 526.98 585.48 523.04
  Q 585.69 520.56 586.83 518.23
  Z"
/>
<path fill="#2c827e" d="
  M 444.47 561.03
  Q 453.82 574.81 464.34 587.67
  Q 468.01 592.16 470.22 597.71
  Q 463.97 590.18 458.19 582.29
  Q 458.14 582.22 452.96 575.50
  Q 447.81 568.83 444.47 561.03
  Z"
/>
<path fill="#00283b" d="
  M 555.38 582.21
  Q 552.78 586.84 550.20 591.44
  Q 539.62 610.30 538.82 631.99
  Q 538.21 622.31 541.06 612.31
  Q 545.78 595.74 555.38 582.21
  Z"
/>
<path fill="#01a0a6" d="
  M 334.33 632.15
  L 325.50 624.54
  Q 323.66 620.74 326.25 617.75
  Q 329.42 614.10 334.05 611.19
  Q 338.20 608.59 338.25 608.56
  Q 352.43 599.13 361.06 594.56
  Q 363.20 593.43 365.78 594.04
  Q 367.94 594.55 369.63 596.34
  Q 371.94 598.80 372.67 602.06
  Q 373.44 605.52 372.83 608.44
  Q 372.17 611.66 369.44 614.19
  Q 366.85 616.58 365.17 617.73
  Q 355.69 624.19 346.31 630.81
  Q 340.29 635.06 334.33 632.15
  Z"
/>
<path fill="#11837c" d="
  M 690.03 617.31
  Q 702.90 622.43 707.44 625.06
  Q 711.96 627.68 714.75 628.00
  Q 722.83 628.91 723.07 621.70
  Q 723.14 619.49 722.23 617.95
  Q 721.22 616.23 719.32 615.17
  Q 713.39 611.87 706.98 609.65
  Q 706.92 609.63 702.99 608.49
  Q 697.91 607.01 693.68 603.81
  Q 692.82 603.16 690.92 602.35
  Q 689.38 601.70 688.30 600.39
  Q 687.97 599.99 687.54 599.82
  Q 685.86 599.17 685.31 598.69
  Q 682.50 596.24 678.75 596.49
  Q 675.46 596.71 673.62 599.53
  Q 674.46 596.09 677.39 595.12
  Q 679.49 594.43 682.60 595.24
  Q 687.20 596.44 691.56 599.94
  Q 695.08 602.76 701.65 605.47
  Q 710.38 609.07 718.90 613.15
  Q 725.38 616.25 724.00 623.25
  Q 722.72 629.73 715.75 629.25
  Q 713.49 629.10 710.07 627.45
  Q 705.29 625.15 704.71 624.90
  Q 697.16 621.57 690.03 617.31
  Z"
/>
<path fill="#02a0a3" d="
  M 690.03 617.31
  Q 683.85 614.88 677.97 611.78
  Q 674.25 609.81 673.16 607.48
  Q 671.48 603.88 673.62 599.53
  Q 675.46 596.71 678.75 596.49
  Q 682.50 596.24 685.31 598.69
  Q 685.86 599.17 687.54 599.82
  Q 687.97 599.99 688.30 600.39
  Q 689.38 601.70 690.92 602.35
  Q 692.82 603.16 693.68 603.81
  Q 697.91 607.01 702.99 608.49
  Q 706.92 609.63 706.98 609.65
  Q 713.39 611.87 719.32 615.17
  Q 721.22 616.23 722.23 617.95
  Q 723.14 619.49 723.07 621.70
  Q 722.83 628.91 714.75 628.00
  Q 711.96 627.68 707.44 625.06
  Q 702.90 622.43 690.03 617.31
  Z"
/>
<path fill="#026c6e" d="
  M 477.07 614.29
  Q 481.66 626.69 482.00 641.50
  Q 482.49 662.67 481.84 676.27
  Q 481.53 670.21 481.00 643.25
  Q 480.74 630.10 477.07 614.29
  Z"
/>
<path fill="#026c6e" d="
  M 325.50 624.54
  L 334.33 632.15
  Q 328.36 629.94 325.50 624.54
  Z"
/>
<path fill="#019da5" d="
  M 566.78 701.25
  Q 574.58 703.03 580.39 708.45
  Q 584.85 713.15 583.50 719.00
  Q 581.66 726.96 575.94 731.44
  Q 573.98 732.97 570.50 733.29
  Q 567.08 733.62 563.65 733.49
  Q 556.93 733.24 556.84 733.24
  Q 517.68 733.10 478.53 733.48
  Q 478.43 733.48 474.00 733.80
  Q 468.87 734.17 465.06 731.44
  Q 461.49 728.87 458.43 723.54
  Q 454.82 717.25 457.91 710.58
  Q 462.23 701.27 472.75 701.27
  Q 519.78 701.25 566.78 701.25
  Z"
/>
<path fill="#026c6e" d="
  M 566.78 701.25
  Q 575.72 700.99 580.39 708.45
  Q 574.58 703.03 566.78 701.25
  Z"
/>
<path fill="#0199a4" d="
  M 463.53 775.43
  Q 459.85 772.92 458.27 769.10
  Q 456.64 765.16 458.07 761.37
  Q 460.39 755.25 468.75 755.25
  Q 510.85 755.25 552.95 755.25
  Q 553.01 755.25 561.55 755.00
  Q 565.95 754.87 570.33 755.26
  Q 575.84 755.75 578.20 757.65
  Q 580.83 759.77 581.13 763.42
  Q 581.36 766.25 580.00 769.42
  Q 576.29 778.08 566.25 778.00
  Q 499.36 777.44 473.19 777.81
  Q 467.15 777.90 463.53 775.43
  Z"
/>
<path fill="#02a0a3" d="
  M 506.79 817.76
  Q 504.15 814.78 501.69 810.56
  Q 497.61 803.57 496.14 800.15
  A 0.33 0.32 -12.2 0 1 496.44 799.69
  Q 513.35 799.79 530.25 799.69
  Q 537.05 799.64 543.93 800.78
  A 0.59 0.59 13.9 0 1 544.40 801.56
  Q 541.01 811.36 534.69 819.19
  Q 531.99 822.52 526.78 823.63
  Q 519.95 825.09 513.87 822.76
  Q 509.86 821.23 506.79 817.76
  Z"
/>
<path fill="#cac9cf" d="
  M 6.46 994.50
  Q 5.90 993.56 4.99 993.64
  Q 4.39 993.70 4.01 993.65
  L 0.00 993.19
  L 0.00 991.69
  Q 0.57 988.11 1.00 984.50
  Q 1.13 983.43 2.29 983.81
  A 1.65 1.28 39.0 0 0 3.22 983.83
  Q 6.41 982.77 5.38 985.86
  A 4.12 4.11 44.3 0 0 5.42 988.59
  Q 6.66 992.02 6.46 994.50
  Z"
/>
<path fill="#e7e3eb" d="
  M 22.00 993.43
  L 22.81 990.46
  A 0.48 0.44 -68.1 0 1 23.47 990.14
  Q 23.79 990.33 23.75 990.75
  Q 22.96 998.94 23.75 1003.75
  Q 24.80 1010.11 18.76 1009.25
  A 1.98 1.98 -84.7 0 1 17.06 1007.20
  Q 17.45 998.88 18.96 990.69
  Q 19.01 990.46 19.15 990.35
  Q 19.48 990.10 19.52 990.82
  Q 19.64 992.52 19.96 994.19
  A 0.50 0.43 74.0 0 0 20.56 994.59
  L 21.52 994.21
  A 1.17 0.51 -81.7 0 0 22.00 993.43
  Z"
/>
<path fill="#a6a6a8" d="
  M 0.00 993.19
  L 4.01 993.65
  Q 4.39 993.70 4.99 993.64
  Q 5.90 993.56 6.46 994.50
  L 6.71 1003.50
  Q 3.25 1004.00 0.00 1002.94
  L 0.00 993.19
  Z"
/>
<path fill="#929293" d="
  M 0.00 1002.94
  Q 3.25 1004.00 6.71 1003.50
  L 6.71 1013.75
  L 0.00 1013.94
  L 0.00 1002.94
  Z"
/>
<path fill="#626262" d="
  M 6.71 1013.75
  L 6.44 1024.00
  L 0.00 1024.00
  L 0.00 1013.94
  L 6.71 1013.75
  Z"
/>
</svg>
